G04 #@! TF.FileFunction,Copper,L2,Bot,Signal*
%FSLAX46Y46*%
G04 Gerber Fmt 4.6, Leading zero omitted, Abs format (unit mm)*
G04 Created by KiCad (PCBNEW 4.0.7) date 07/10/18 00:50:01*
%MOMM*%
%LPD*%
G01*
G04 APERTURE LIST*
%ADD10C,0.100000*%
%ADD11C,2.600000*%
%ADD12C,2.000000*%
%ADD13R,2.800000X2.800000*%
%ADD14C,2.800000*%
%ADD15C,1.600000*%
%ADD16C,0.250000*%
%ADD17C,0.391000*%
%ADD18C,0.254000*%
G04 APERTURE END LIST*
D10*
D11*
X169124000Y-101854000D03*
X164124000Y-101854000D03*
X161624000Y-111854000D03*
X166624000Y-111854000D03*
X171624000Y-111854000D03*
X164124000Y-114354000D03*
X169124000Y-114354000D03*
X159124000Y-114354000D03*
X174124000Y-114354000D03*
D12*
X166624000Y-116854000D03*
D13*
X127776000Y-122718000D03*
D14*
X131976000Y-122718000D03*
X136176000Y-122718000D03*
X140376000Y-122718000D03*
X144576000Y-122718000D03*
X148776000Y-122718000D03*
X152976000Y-122718000D03*
X157176000Y-122718000D03*
X161376000Y-122718000D03*
X165576000Y-122718000D03*
X169776000Y-122718000D03*
X173976000Y-122718000D03*
X127776000Y-127218000D03*
X131976000Y-127218000D03*
X136176000Y-127218000D03*
X140376000Y-127218000D03*
X144576000Y-127218000D03*
X148776000Y-127218000D03*
X152976000Y-127218000D03*
X157176000Y-127218000D03*
X161376000Y-127218000D03*
X165576000Y-127218000D03*
X169776000Y-127218000D03*
X173976000Y-127218000D03*
D15*
X126254000Y-103632000D03*
X126254000Y-113792000D03*
X126254000Y-111252000D03*
X126254000Y-108712000D03*
D16*
X167640000Y-121412000D02*
X167640000Y-118364000D01*
X134226000Y-124968000D02*
X166116000Y-124968000D01*
X166116000Y-124968000D02*
X167640000Y-123444000D01*
X167640000Y-123444000D02*
X167640000Y-121412000D01*
X131976000Y-127218000D02*
X134226000Y-124968000D01*
X166624000Y-114554000D02*
X166624000Y-111854000D01*
X168402000Y-116332000D02*
X166624000Y-114554000D01*
X168402000Y-117602000D02*
X168402000Y-116332000D01*
X167640000Y-118364000D02*
X168402000Y-117602000D01*
D17*
X165576000Y-122718000D02*
X164124000Y-121266000D01*
X164124000Y-121266000D02*
X164124000Y-114354000D01*
D18*
G36*
X185042000Y-129592000D02*
X116710000Y-129592000D01*
X116710000Y-127180815D01*
X120940630Y-127180815D01*
X121264980Y-127965800D01*
X121865041Y-128566909D01*
X122649459Y-128892628D01*
X123498815Y-128893370D01*
X124283800Y-128569020D01*
X124884909Y-127968959D01*
X125029389Y-127621011D01*
X125740648Y-127621011D01*
X126049805Y-128369229D01*
X126621760Y-128942183D01*
X127369438Y-129252646D01*
X128179011Y-129253352D01*
X128927229Y-128944195D01*
X129500183Y-128372240D01*
X129810646Y-127624562D01*
X129810649Y-127621011D01*
X129940648Y-127621011D01*
X130249805Y-128369229D01*
X130821760Y-128942183D01*
X131569438Y-129252646D01*
X132379011Y-129253352D01*
X133127229Y-128944195D01*
X133412196Y-128659724D01*
X134913882Y-128659724D01*
X135061455Y-128968106D01*
X135816031Y-129261405D01*
X136625409Y-129243614D01*
X137290545Y-128968106D01*
X137438118Y-128659724D01*
X136176000Y-127397605D01*
X134913882Y-128659724D01*
X133412196Y-128659724D01*
X133700183Y-128372240D01*
X134010646Y-127624562D01*
X134011314Y-126858031D01*
X134132595Y-126858031D01*
X134150386Y-127667409D01*
X134425894Y-128332545D01*
X134734276Y-128480118D01*
X135996395Y-127218000D01*
X136355605Y-127218000D01*
X137617724Y-128480118D01*
X137926106Y-128332545D01*
X138219405Y-127577969D01*
X138201614Y-126768591D01*
X137926106Y-126103455D01*
X137617724Y-125955882D01*
X136355605Y-127218000D01*
X135996395Y-127218000D01*
X134734276Y-125955882D01*
X134425894Y-126103455D01*
X134132595Y-126858031D01*
X134011314Y-126858031D01*
X134011352Y-126814989D01*
X133848338Y-126420464D01*
X134540802Y-125728000D01*
X134936984Y-125728000D01*
X134913882Y-125776276D01*
X136176000Y-127038395D01*
X137438118Y-125776276D01*
X137415016Y-125728000D01*
X138988163Y-125728000D01*
X138651817Y-126063760D01*
X138341354Y-126811438D01*
X138340648Y-127621011D01*
X138649805Y-128369229D01*
X139221760Y-128942183D01*
X139969438Y-129252646D01*
X140779011Y-129253352D01*
X141527229Y-128944195D01*
X141812196Y-128659724D01*
X143313882Y-128659724D01*
X143461455Y-128968106D01*
X144216031Y-129261405D01*
X145025409Y-129243614D01*
X145690545Y-128968106D01*
X145838118Y-128659724D01*
X147513882Y-128659724D01*
X147661455Y-128968106D01*
X148416031Y-129261405D01*
X149225409Y-129243614D01*
X149890545Y-128968106D01*
X150038118Y-128659724D01*
X151713882Y-128659724D01*
X151861455Y-128968106D01*
X152616031Y-129261405D01*
X153425409Y-129243614D01*
X154090545Y-128968106D01*
X154238118Y-128659724D01*
X152976000Y-127397605D01*
X151713882Y-128659724D01*
X150038118Y-128659724D01*
X148776000Y-127397605D01*
X147513882Y-128659724D01*
X145838118Y-128659724D01*
X144576000Y-127397605D01*
X143313882Y-128659724D01*
X141812196Y-128659724D01*
X142100183Y-128372240D01*
X142410646Y-127624562D01*
X142411314Y-126858031D01*
X142532595Y-126858031D01*
X142550386Y-127667409D01*
X142825894Y-128332545D01*
X143134276Y-128480118D01*
X144396395Y-127218000D01*
X144755605Y-127218000D01*
X146017724Y-128480118D01*
X146326106Y-128332545D01*
X146619405Y-127577969D01*
X146603580Y-126858031D01*
X146732595Y-126858031D01*
X146750386Y-127667409D01*
X147025894Y-128332545D01*
X147334276Y-128480118D01*
X148596395Y-127218000D01*
X148955605Y-127218000D01*
X150217724Y-128480118D01*
X150526106Y-128332545D01*
X150819405Y-127577969D01*
X150803580Y-126858031D01*
X150932595Y-126858031D01*
X150950386Y-127667409D01*
X151225894Y-128332545D01*
X151534276Y-128480118D01*
X152796395Y-127218000D01*
X153155605Y-127218000D01*
X154417724Y-128480118D01*
X154726106Y-128332545D01*
X155019405Y-127577969D01*
X155001614Y-126768591D01*
X154726106Y-126103455D01*
X154417724Y-125955882D01*
X153155605Y-127218000D01*
X152796395Y-127218000D01*
X151534276Y-125955882D01*
X151225894Y-126103455D01*
X150932595Y-126858031D01*
X150803580Y-126858031D01*
X150801614Y-126768591D01*
X150526106Y-126103455D01*
X150217724Y-125955882D01*
X148955605Y-127218000D01*
X148596395Y-127218000D01*
X147334276Y-125955882D01*
X147025894Y-126103455D01*
X146732595Y-126858031D01*
X146603580Y-126858031D01*
X146601614Y-126768591D01*
X146326106Y-126103455D01*
X146017724Y-125955882D01*
X144755605Y-127218000D01*
X144396395Y-127218000D01*
X143134276Y-125955882D01*
X142825894Y-126103455D01*
X142532595Y-126858031D01*
X142411314Y-126858031D01*
X142411352Y-126814989D01*
X142102195Y-126066771D01*
X141764015Y-125728000D01*
X143336984Y-125728000D01*
X143313882Y-125776276D01*
X144576000Y-127038395D01*
X145838118Y-125776276D01*
X145815016Y-125728000D01*
X147536984Y-125728000D01*
X147513882Y-125776276D01*
X148776000Y-127038395D01*
X150038118Y-125776276D01*
X150015016Y-125728000D01*
X151736984Y-125728000D01*
X151713882Y-125776276D01*
X152976000Y-127038395D01*
X154238118Y-125776276D01*
X154215016Y-125728000D01*
X155788163Y-125728000D01*
X155451817Y-126063760D01*
X155141354Y-126811438D01*
X155140648Y-127621011D01*
X155449805Y-128369229D01*
X156021760Y-128942183D01*
X156769438Y-129252646D01*
X157579011Y-129253352D01*
X158327229Y-128944195D01*
X158900183Y-128372240D01*
X159210646Y-127624562D01*
X159211352Y-126814989D01*
X158902195Y-126066771D01*
X158564015Y-125728000D01*
X159988163Y-125728000D01*
X159651817Y-126063760D01*
X159341354Y-126811438D01*
X159340648Y-127621011D01*
X159649805Y-128369229D01*
X160221760Y-128942183D01*
X160969438Y-129252646D01*
X161779011Y-129253352D01*
X162527229Y-128944195D01*
X163100183Y-128372240D01*
X163410646Y-127624562D01*
X163411352Y-126814989D01*
X163102195Y-126066771D01*
X162764015Y-125728000D01*
X164188163Y-125728000D01*
X163851817Y-126063760D01*
X163541354Y-126811438D01*
X163540648Y-127621011D01*
X163849805Y-128369229D01*
X164421760Y-128942183D01*
X165169438Y-129252646D01*
X165979011Y-129253352D01*
X166727229Y-128944195D01*
X167300183Y-128372240D01*
X167610646Y-127624562D01*
X167610649Y-127621011D01*
X167740648Y-127621011D01*
X168049805Y-128369229D01*
X168621760Y-128942183D01*
X169369438Y-129252646D01*
X170179011Y-129253352D01*
X170927229Y-128944195D01*
X171212196Y-128659724D01*
X172713882Y-128659724D01*
X172861455Y-128968106D01*
X173616031Y-129261405D01*
X174425409Y-129243614D01*
X175090545Y-128968106D01*
X175238118Y-128659724D01*
X173976000Y-127397605D01*
X172713882Y-128659724D01*
X171212196Y-128659724D01*
X171500183Y-128372240D01*
X171810646Y-127624562D01*
X171811314Y-126858031D01*
X171932595Y-126858031D01*
X171950386Y-127667409D01*
X172225894Y-128332545D01*
X172534276Y-128480118D01*
X173796395Y-127218000D01*
X174155605Y-127218000D01*
X175417724Y-128480118D01*
X175726106Y-128332545D01*
X176019405Y-127577969D01*
X176001614Y-126768591D01*
X175754755Y-126172619D01*
X179374613Y-126172619D01*
X179714155Y-126994372D01*
X180342321Y-127623636D01*
X181163481Y-127964611D01*
X182052619Y-127965387D01*
X182874372Y-127625845D01*
X183503636Y-126997679D01*
X183844611Y-126176519D01*
X183845387Y-125287381D01*
X183505845Y-124465628D01*
X182877679Y-123836364D01*
X182056519Y-123495389D01*
X181167381Y-123494613D01*
X180345628Y-123834155D01*
X179716364Y-124462321D01*
X179375389Y-125283481D01*
X179374613Y-126172619D01*
X175754755Y-126172619D01*
X175726106Y-126103455D01*
X175417724Y-125955882D01*
X174155605Y-127218000D01*
X173796395Y-127218000D01*
X172534276Y-125955882D01*
X172225894Y-126103455D01*
X171932595Y-126858031D01*
X171811314Y-126858031D01*
X171811352Y-126814989D01*
X171502195Y-126066771D01*
X171212207Y-125776276D01*
X172713882Y-125776276D01*
X173976000Y-127038395D01*
X175238118Y-125776276D01*
X175090545Y-125467894D01*
X174335969Y-125174595D01*
X173526591Y-125192386D01*
X172861455Y-125467894D01*
X172713882Y-125776276D01*
X171212207Y-125776276D01*
X170930240Y-125493817D01*
X170182562Y-125183354D01*
X169372989Y-125182648D01*
X168624771Y-125491805D01*
X168051817Y-126063760D01*
X167741354Y-126811438D01*
X167740648Y-127621011D01*
X167610649Y-127621011D01*
X167611352Y-126814989D01*
X167302195Y-126066771D01*
X166730240Y-125493817D01*
X166684131Y-125474671D01*
X168169584Y-123989218D01*
X168621760Y-124442183D01*
X169369438Y-124752646D01*
X170179011Y-124753352D01*
X170927229Y-124444195D01*
X171500183Y-123872240D01*
X171810646Y-123124562D01*
X171810649Y-123121011D01*
X171940648Y-123121011D01*
X172249805Y-123869229D01*
X172821760Y-124442183D01*
X173569438Y-124752646D01*
X174379011Y-124753352D01*
X175127229Y-124444195D01*
X175700183Y-123872240D01*
X176010646Y-123124562D01*
X176011352Y-122314989D01*
X175702195Y-121566771D01*
X175130240Y-120993817D01*
X174382562Y-120683354D01*
X173572989Y-120682648D01*
X172824771Y-120991805D01*
X172251817Y-121563760D01*
X171941354Y-122311438D01*
X171940648Y-123121011D01*
X171810649Y-123121011D01*
X171811352Y-122314989D01*
X171502195Y-121566771D01*
X170930240Y-120993817D01*
X170182562Y-120683354D01*
X169372989Y-120682648D01*
X168624771Y-120991805D01*
X168400000Y-121216184D01*
X168400000Y-118678802D01*
X168939401Y-118139401D01*
X169104148Y-117892839D01*
X169162000Y-117602000D01*
X169162000Y-116332000D01*
X169153452Y-116289026D01*
X169507207Y-116289335D01*
X170218658Y-115995370D01*
X170763457Y-115451521D01*
X171058663Y-114740584D01*
X171059335Y-113970793D01*
X170931222Y-113660735D01*
X171287880Y-113798066D01*
X172057427Y-113778710D01*
X172311372Y-113673523D01*
X172189337Y-113967416D01*
X172188665Y-114737207D01*
X172482630Y-115448658D01*
X173026479Y-115993457D01*
X173737416Y-116288663D01*
X174507207Y-116289335D01*
X175218658Y-115995370D01*
X175763457Y-115451521D01*
X176058663Y-114740584D01*
X176059335Y-113970793D01*
X175765370Y-113259342D01*
X175221521Y-112714543D01*
X174510584Y-112419337D01*
X173740793Y-112418665D01*
X173430735Y-112546778D01*
X173568066Y-112190120D01*
X173548710Y-111420573D01*
X173291455Y-110799504D01*
X172993459Y-110664146D01*
X171803605Y-111854000D01*
X171817748Y-111868143D01*
X171638143Y-112047748D01*
X171624000Y-112033605D01*
X171609858Y-112047748D01*
X171430253Y-111868143D01*
X171444395Y-111854000D01*
X170254541Y-110664146D01*
X169956545Y-110799504D01*
X169679934Y-111517880D01*
X169699290Y-112287427D01*
X169804477Y-112541372D01*
X169510584Y-112419337D01*
X168740793Y-112418665D01*
X168431683Y-112546386D01*
X168558663Y-112240584D01*
X168559335Y-111470793D01*
X168265370Y-110759342D01*
X167991049Y-110484541D01*
X170434146Y-110484541D01*
X171624000Y-111674395D01*
X172813854Y-110484541D01*
X172678496Y-110186545D01*
X171960120Y-109909934D01*
X171190573Y-109929290D01*
X170569504Y-110186545D01*
X170434146Y-110484541D01*
X167991049Y-110484541D01*
X167721521Y-110214543D01*
X167010584Y-109919337D01*
X166240793Y-109918665D01*
X165529342Y-110212630D01*
X164984543Y-110756479D01*
X164689337Y-111467416D01*
X164688665Y-112237207D01*
X164816386Y-112546317D01*
X164510584Y-112419337D01*
X163740793Y-112418665D01*
X163430735Y-112546778D01*
X163568066Y-112190120D01*
X163548710Y-111420573D01*
X163291455Y-110799504D01*
X162993459Y-110664146D01*
X161803605Y-111854000D01*
X161817748Y-111868143D01*
X161638143Y-112047748D01*
X161624000Y-112033605D01*
X161609858Y-112047748D01*
X161430253Y-111868143D01*
X161444395Y-111854000D01*
X160254541Y-110664146D01*
X159956545Y-110799504D01*
X159679934Y-111517880D01*
X159699290Y-112287427D01*
X159804477Y-112541372D01*
X159510584Y-112419337D01*
X158740793Y-112418665D01*
X158029342Y-112712630D01*
X157484543Y-113256479D01*
X157189337Y-113967416D01*
X157188665Y-114737207D01*
X157482630Y-115448658D01*
X158026479Y-115993457D01*
X158737416Y-116288663D01*
X159507207Y-116289335D01*
X160218658Y-115995370D01*
X160763457Y-115451521D01*
X161058663Y-114740584D01*
X161059335Y-113970793D01*
X160931222Y-113660735D01*
X161287880Y-113798066D01*
X162057427Y-113778710D01*
X162311372Y-113673523D01*
X162189337Y-113967416D01*
X162188665Y-114737207D01*
X162482630Y-115448658D01*
X163026479Y-115993457D01*
X163293500Y-116104333D01*
X163293500Y-121266000D01*
X163356718Y-121583819D01*
X163436245Y-121702839D01*
X163536748Y-121853252D01*
X163674436Y-121990940D01*
X163541354Y-122311438D01*
X163540648Y-123121011D01*
X163849805Y-123869229D01*
X164187985Y-124208000D01*
X162763837Y-124208000D01*
X163100183Y-123872240D01*
X163410646Y-123124562D01*
X163411352Y-122314989D01*
X163102195Y-121566771D01*
X162530240Y-120993817D01*
X161782562Y-120683354D01*
X160972989Y-120682648D01*
X160224771Y-120991805D01*
X159651817Y-121563760D01*
X159341354Y-122311438D01*
X159340648Y-123121011D01*
X159649805Y-123869229D01*
X159987985Y-124208000D01*
X158563837Y-124208000D01*
X158900183Y-123872240D01*
X159210646Y-123124562D01*
X159211352Y-122314989D01*
X158902195Y-121566771D01*
X158330240Y-120993817D01*
X157582562Y-120683354D01*
X156772989Y-120682648D01*
X156024771Y-120991805D01*
X155451817Y-121563760D01*
X155141354Y-122311438D01*
X155140648Y-123121011D01*
X155449805Y-123869229D01*
X155787985Y-124208000D01*
X154215016Y-124208000D01*
X154238118Y-124159724D01*
X152976000Y-122897605D01*
X151713882Y-124159724D01*
X151736984Y-124208000D01*
X150163837Y-124208000D01*
X150500183Y-123872240D01*
X150810646Y-123124562D01*
X150811314Y-122358031D01*
X150932595Y-122358031D01*
X150950386Y-123167409D01*
X151225894Y-123832545D01*
X151534276Y-123980118D01*
X152796395Y-122718000D01*
X153155605Y-122718000D01*
X154417724Y-123980118D01*
X154726106Y-123832545D01*
X155019405Y-123077969D01*
X155001614Y-122268591D01*
X154726106Y-121603455D01*
X154417724Y-121455882D01*
X153155605Y-122718000D01*
X152796395Y-122718000D01*
X151534276Y-121455882D01*
X151225894Y-121603455D01*
X150932595Y-122358031D01*
X150811314Y-122358031D01*
X150811352Y-122314989D01*
X150502195Y-121566771D01*
X150212207Y-121276276D01*
X151713882Y-121276276D01*
X152976000Y-122538395D01*
X154238118Y-121276276D01*
X154090545Y-120967894D01*
X153335969Y-120674595D01*
X152526591Y-120692386D01*
X151861455Y-120967894D01*
X151713882Y-121276276D01*
X150212207Y-121276276D01*
X149930240Y-120993817D01*
X149182562Y-120683354D01*
X148372989Y-120682648D01*
X147624771Y-120991805D01*
X147051817Y-121563760D01*
X146741354Y-122311438D01*
X146740648Y-123121011D01*
X147049805Y-123869229D01*
X147387985Y-124208000D01*
X145815016Y-124208000D01*
X145838118Y-124159724D01*
X144576000Y-122897605D01*
X143313882Y-124159724D01*
X143336984Y-124208000D01*
X141763837Y-124208000D01*
X142100183Y-123872240D01*
X142410646Y-123124562D01*
X142411314Y-122358031D01*
X142532595Y-122358031D01*
X142550386Y-123167409D01*
X142825894Y-123832545D01*
X143134276Y-123980118D01*
X144396395Y-122718000D01*
X144755605Y-122718000D01*
X146017724Y-123980118D01*
X146326106Y-123832545D01*
X146619405Y-123077969D01*
X146601614Y-122268591D01*
X146326106Y-121603455D01*
X146017724Y-121455882D01*
X144755605Y-122718000D01*
X144396395Y-122718000D01*
X143134276Y-121455882D01*
X142825894Y-121603455D01*
X142532595Y-122358031D01*
X142411314Y-122358031D01*
X142411352Y-122314989D01*
X142102195Y-121566771D01*
X141812207Y-121276276D01*
X143313882Y-121276276D01*
X144576000Y-122538395D01*
X145838118Y-121276276D01*
X145690545Y-120967894D01*
X144935969Y-120674595D01*
X144126591Y-120692386D01*
X143461455Y-120967894D01*
X143313882Y-121276276D01*
X141812207Y-121276276D01*
X141530240Y-120993817D01*
X140782562Y-120683354D01*
X139972989Y-120682648D01*
X139224771Y-120991805D01*
X138651817Y-121563760D01*
X138341354Y-122311438D01*
X138340648Y-123121011D01*
X138649805Y-123869229D01*
X138987985Y-124208000D01*
X137415016Y-124208000D01*
X137438118Y-124159724D01*
X136176000Y-122897605D01*
X134913882Y-124159724D01*
X134936984Y-124208000D01*
X134226000Y-124208000D01*
X133935161Y-124265852D01*
X133688599Y-124430599D01*
X132773509Y-125345689D01*
X132382562Y-125183354D01*
X131572989Y-125182648D01*
X130824771Y-125491805D01*
X130251817Y-126063760D01*
X129941354Y-126811438D01*
X129940648Y-127621011D01*
X129810649Y-127621011D01*
X129811352Y-126814989D01*
X129502195Y-126066771D01*
X128930240Y-125493817D01*
X128182562Y-125183354D01*
X127372989Y-125182648D01*
X126624771Y-125491805D01*
X126051817Y-126063760D01*
X125741354Y-126811438D01*
X125740648Y-127621011D01*
X125029389Y-127621011D01*
X125210628Y-127184541D01*
X125211370Y-126335185D01*
X124887020Y-125550200D01*
X124286959Y-124949091D01*
X123502541Y-124623372D01*
X122653185Y-124622630D01*
X121868200Y-124946980D01*
X121267091Y-125547041D01*
X120941372Y-126331459D01*
X120940630Y-127180815D01*
X116710000Y-127180815D01*
X116710000Y-122362619D01*
X118414613Y-122362619D01*
X118754155Y-123184372D01*
X119382321Y-123813636D01*
X120203481Y-124154611D01*
X121092619Y-124155387D01*
X121914372Y-123815845D01*
X122543636Y-123187679D01*
X122884611Y-122366519D01*
X122885387Y-121477381D01*
X122819533Y-121318000D01*
X125728560Y-121318000D01*
X125728560Y-124118000D01*
X125772838Y-124353317D01*
X125911910Y-124569441D01*
X126124110Y-124714431D01*
X126376000Y-124765440D01*
X129176000Y-124765440D01*
X129411317Y-124721162D01*
X129627441Y-124582090D01*
X129772431Y-124369890D01*
X129823440Y-124118000D01*
X129823440Y-123121011D01*
X129940648Y-123121011D01*
X130249805Y-123869229D01*
X130821760Y-124442183D01*
X131569438Y-124752646D01*
X132379011Y-124753352D01*
X133127229Y-124444195D01*
X133700183Y-123872240D01*
X134010646Y-123124562D01*
X134011314Y-122358031D01*
X134132595Y-122358031D01*
X134150386Y-123167409D01*
X134425894Y-123832545D01*
X134734276Y-123980118D01*
X135996395Y-122718000D01*
X136355605Y-122718000D01*
X137617724Y-123980118D01*
X137926106Y-123832545D01*
X138219405Y-123077969D01*
X138201614Y-122268591D01*
X137926106Y-121603455D01*
X137617724Y-121455882D01*
X136355605Y-122718000D01*
X135996395Y-122718000D01*
X134734276Y-121455882D01*
X134425894Y-121603455D01*
X134132595Y-122358031D01*
X134011314Y-122358031D01*
X134011352Y-122314989D01*
X133702195Y-121566771D01*
X133412207Y-121276276D01*
X134913882Y-121276276D01*
X136176000Y-122538395D01*
X137438118Y-121276276D01*
X137290545Y-120967894D01*
X136535969Y-120674595D01*
X135726591Y-120692386D01*
X135061455Y-120967894D01*
X134913882Y-121276276D01*
X133412207Y-121276276D01*
X133130240Y-120993817D01*
X132382562Y-120683354D01*
X131572989Y-120682648D01*
X130824771Y-120991805D01*
X130251817Y-121563760D01*
X129941354Y-122311438D01*
X129940648Y-123121011D01*
X129823440Y-123121011D01*
X129823440Y-121318000D01*
X129779162Y-121082683D01*
X129640090Y-120866559D01*
X129427890Y-120721569D01*
X129176000Y-120670560D01*
X126376000Y-120670560D01*
X126140683Y-120714838D01*
X125924559Y-120853910D01*
X125779569Y-121066110D01*
X125728560Y-121318000D01*
X122819533Y-121318000D01*
X122545845Y-120655628D01*
X121917679Y-120026364D01*
X121096519Y-119685389D01*
X120207381Y-119684613D01*
X119385628Y-120024155D01*
X118756364Y-120652321D01*
X118415389Y-121473481D01*
X118414613Y-122362619D01*
X116710000Y-122362619D01*
X116710000Y-114076187D01*
X124818752Y-114076187D01*
X125036757Y-114603800D01*
X125440077Y-115007824D01*
X125967309Y-115226750D01*
X126538187Y-115227248D01*
X127065800Y-115009243D01*
X127469824Y-114605923D01*
X127688750Y-114078691D01*
X127689248Y-113507813D01*
X127471243Y-112980200D01*
X127067923Y-112576176D01*
X126953232Y-112528552D01*
X127008005Y-112505864D01*
X127082139Y-112259745D01*
X126254000Y-111431605D01*
X125425861Y-112259745D01*
X125499995Y-112505864D01*
X125558254Y-112526805D01*
X125442200Y-112574757D01*
X125038176Y-112978077D01*
X124819250Y-113505309D01*
X124818752Y-114076187D01*
X116710000Y-114076187D01*
X116710000Y-111035223D01*
X124807035Y-111035223D01*
X124834222Y-111605454D01*
X125000136Y-112006005D01*
X125246255Y-112080139D01*
X126074395Y-111252000D01*
X126433605Y-111252000D01*
X127261745Y-112080139D01*
X127507864Y-112006005D01*
X127700965Y-111468777D01*
X127673778Y-110898546D01*
X127507864Y-110497995D01*
X127463198Y-110484541D01*
X160434146Y-110484541D01*
X161624000Y-111674395D01*
X162813854Y-110484541D01*
X162678496Y-110186545D01*
X161960120Y-109909934D01*
X161190573Y-109929290D01*
X160569504Y-110186545D01*
X160434146Y-110484541D01*
X127463198Y-110484541D01*
X127261745Y-110423861D01*
X126433605Y-111252000D01*
X126074395Y-111252000D01*
X125246255Y-110423861D01*
X125000136Y-110497995D01*
X124807035Y-111035223D01*
X116710000Y-111035223D01*
X116710000Y-108996187D01*
X124818752Y-108996187D01*
X125036757Y-109523800D01*
X125440077Y-109927824D01*
X125554768Y-109975448D01*
X125499995Y-109998136D01*
X125425861Y-110244255D01*
X126254000Y-111072395D01*
X127082139Y-110244255D01*
X127008005Y-109998136D01*
X126949746Y-109977195D01*
X127065800Y-109929243D01*
X127469824Y-109525923D01*
X127688750Y-108998691D01*
X127689248Y-108427813D01*
X127574944Y-108151175D01*
X160506430Y-108151175D01*
X160629565Y-108438788D01*
X161311734Y-108698707D01*
X162041443Y-108677786D01*
X162618435Y-108438788D01*
X162741570Y-108151175D01*
X170506430Y-108151175D01*
X170629565Y-108438788D01*
X171311734Y-108698707D01*
X172041443Y-108677786D01*
X172618435Y-108438788D01*
X172741570Y-108151175D01*
X171624000Y-107033605D01*
X170506430Y-108151175D01*
X162741570Y-108151175D01*
X161624000Y-107033605D01*
X160506430Y-108151175D01*
X127574944Y-108151175D01*
X127471243Y-107900200D01*
X127067923Y-107496176D01*
X126540691Y-107277250D01*
X125969813Y-107276752D01*
X125442200Y-107494757D01*
X125038176Y-107898077D01*
X124819250Y-108425309D01*
X124818752Y-108996187D01*
X116710000Y-108996187D01*
X116710000Y-106541734D01*
X159779293Y-106541734D01*
X159800214Y-107271443D01*
X160039212Y-107848435D01*
X160326825Y-107971570D01*
X161444395Y-106854000D01*
X161803605Y-106854000D01*
X162921175Y-107971570D01*
X163208788Y-107848435D01*
X163468707Y-107166266D01*
X163450802Y-106541734D01*
X169779293Y-106541734D01*
X169800214Y-107271443D01*
X170039212Y-107848435D01*
X170326825Y-107971570D01*
X171444395Y-106854000D01*
X171803605Y-106854000D01*
X172921175Y-107971570D01*
X173208788Y-107848435D01*
X173468707Y-107166266D01*
X173447786Y-106436557D01*
X173208788Y-105859565D01*
X172921175Y-105736430D01*
X171803605Y-106854000D01*
X171444395Y-106854000D01*
X170326825Y-105736430D01*
X170039212Y-105859565D01*
X169779293Y-106541734D01*
X163450802Y-106541734D01*
X163447786Y-106436557D01*
X163208788Y-105859565D01*
X162921175Y-105736430D01*
X161803605Y-106854000D01*
X161444395Y-106854000D01*
X160326825Y-105736430D01*
X160039212Y-105859565D01*
X159779293Y-106541734D01*
X116710000Y-106541734D01*
X116710000Y-105556825D01*
X160506430Y-105556825D01*
X161624000Y-106674395D01*
X162741570Y-105556825D01*
X170506430Y-105556825D01*
X171624000Y-106674395D01*
X172741570Y-105556825D01*
X172618435Y-105269212D01*
X171936266Y-105009293D01*
X171206557Y-105030214D01*
X170629565Y-105269212D01*
X170506430Y-105556825D01*
X162741570Y-105556825D01*
X162618435Y-105269212D01*
X161936266Y-105009293D01*
X161206557Y-105030214D01*
X160629565Y-105269212D01*
X160506430Y-105556825D01*
X116710000Y-105556825D01*
X116710000Y-103312619D01*
X118414613Y-103312619D01*
X118754155Y-104134372D01*
X119382321Y-104763636D01*
X120203481Y-105104611D01*
X121092619Y-105105387D01*
X121914372Y-104765845D01*
X122040692Y-104639745D01*
X125425861Y-104639745D01*
X125499995Y-104885864D01*
X126037223Y-105078965D01*
X126607454Y-105051778D01*
X127008005Y-104885864D01*
X127082139Y-104639745D01*
X126254000Y-103811605D01*
X125425861Y-104639745D01*
X122040692Y-104639745D01*
X122543636Y-104137679D01*
X122843625Y-103415223D01*
X124807035Y-103415223D01*
X124834222Y-103985454D01*
X125000136Y-104386005D01*
X125246255Y-104460139D01*
X126074395Y-103632000D01*
X126433605Y-103632000D01*
X127261745Y-104460139D01*
X127507864Y-104386005D01*
X127700965Y-103848777D01*
X127673778Y-103278546D01*
X127650961Y-103223459D01*
X162934146Y-103223459D01*
X163069504Y-103521455D01*
X163787880Y-103798066D01*
X164557427Y-103778710D01*
X165178496Y-103521455D01*
X165313854Y-103223459D01*
X167934146Y-103223459D01*
X168069504Y-103521455D01*
X168787880Y-103798066D01*
X169557427Y-103778710D01*
X170178496Y-103521455D01*
X170273355Y-103312619D01*
X179374613Y-103312619D01*
X179714155Y-104134372D01*
X180342321Y-104763636D01*
X181163481Y-105104611D01*
X182052619Y-105105387D01*
X182874372Y-104765845D01*
X183503636Y-104137679D01*
X183844611Y-103316519D01*
X183845387Y-102427381D01*
X183505845Y-101605628D01*
X182877679Y-100976364D01*
X182056519Y-100635389D01*
X181167381Y-100634613D01*
X180345628Y-100974155D01*
X179716364Y-101602321D01*
X179375389Y-102423481D01*
X179374613Y-103312619D01*
X170273355Y-103312619D01*
X170313854Y-103223459D01*
X169124000Y-102033605D01*
X167934146Y-103223459D01*
X165313854Y-103223459D01*
X164124000Y-102033605D01*
X162934146Y-103223459D01*
X127650961Y-103223459D01*
X127507864Y-102877995D01*
X127261745Y-102803861D01*
X126433605Y-103632000D01*
X126074395Y-103632000D01*
X125246255Y-102803861D01*
X125000136Y-102877995D01*
X124807035Y-103415223D01*
X122843625Y-103415223D01*
X122884611Y-103316519D01*
X122885215Y-102624255D01*
X125425861Y-102624255D01*
X126254000Y-103452395D01*
X127082139Y-102624255D01*
X127008005Y-102378136D01*
X126470777Y-102185035D01*
X125900546Y-102212222D01*
X125499995Y-102378136D01*
X125425861Y-102624255D01*
X122885215Y-102624255D01*
X122885387Y-102427381D01*
X122545845Y-101605628D01*
X122458251Y-101517880D01*
X162179934Y-101517880D01*
X162199290Y-102287427D01*
X162456545Y-102908496D01*
X162754541Y-103043854D01*
X163944395Y-101854000D01*
X164303605Y-101854000D01*
X165493459Y-103043854D01*
X165791455Y-102908496D01*
X166068066Y-102190120D01*
X166051158Y-101517880D01*
X167179934Y-101517880D01*
X167199290Y-102287427D01*
X167456545Y-102908496D01*
X167754541Y-103043854D01*
X168944395Y-101854000D01*
X169303605Y-101854000D01*
X170493459Y-103043854D01*
X170791455Y-102908496D01*
X171068066Y-102190120D01*
X171048710Y-101420573D01*
X170791455Y-100799504D01*
X170493459Y-100664146D01*
X169303605Y-101854000D01*
X168944395Y-101854000D01*
X167754541Y-100664146D01*
X167456545Y-100799504D01*
X167179934Y-101517880D01*
X166051158Y-101517880D01*
X166048710Y-101420573D01*
X165791455Y-100799504D01*
X165493459Y-100664146D01*
X164303605Y-101854000D01*
X163944395Y-101854000D01*
X162754541Y-100664146D01*
X162456545Y-100799504D01*
X162179934Y-101517880D01*
X122458251Y-101517880D01*
X121917679Y-100976364D01*
X121096519Y-100635389D01*
X120207381Y-100634613D01*
X119385628Y-100974155D01*
X118756364Y-101602321D01*
X118415389Y-102423481D01*
X118414613Y-103312619D01*
X116710000Y-103312619D01*
X116710000Y-100484541D01*
X162934146Y-100484541D01*
X164124000Y-101674395D01*
X165313854Y-100484541D01*
X167934146Y-100484541D01*
X169124000Y-101674395D01*
X170313854Y-100484541D01*
X170178496Y-100186545D01*
X169460120Y-99909934D01*
X168690573Y-99929290D01*
X168069504Y-100186545D01*
X167934146Y-100484541D01*
X165313854Y-100484541D01*
X165178496Y-100186545D01*
X164460120Y-99909934D01*
X163690573Y-99929290D01*
X163069504Y-100186545D01*
X162934146Y-100484541D01*
X116710000Y-100484541D01*
X116710000Y-99516000D01*
X185042000Y-99516000D01*
X185042000Y-129592000D01*
X185042000Y-129592000D01*
G37*
X185042000Y-129592000D02*
X116710000Y-129592000D01*
X116710000Y-127180815D01*
X120940630Y-127180815D01*
X121264980Y-127965800D01*
X121865041Y-128566909D01*
X122649459Y-128892628D01*
X123498815Y-128893370D01*
X124283800Y-128569020D01*
X124884909Y-127968959D01*
X125029389Y-127621011D01*
X125740648Y-127621011D01*
X126049805Y-128369229D01*
X126621760Y-128942183D01*
X127369438Y-129252646D01*
X128179011Y-129253352D01*
X128927229Y-128944195D01*
X129500183Y-128372240D01*
X129810646Y-127624562D01*
X129810649Y-127621011D01*
X129940648Y-127621011D01*
X130249805Y-128369229D01*
X130821760Y-128942183D01*
X131569438Y-129252646D01*
X132379011Y-129253352D01*
X133127229Y-128944195D01*
X133412196Y-128659724D01*
X134913882Y-128659724D01*
X135061455Y-128968106D01*
X135816031Y-129261405D01*
X136625409Y-129243614D01*
X137290545Y-128968106D01*
X137438118Y-128659724D01*
X136176000Y-127397605D01*
X134913882Y-128659724D01*
X133412196Y-128659724D01*
X133700183Y-128372240D01*
X134010646Y-127624562D01*
X134011314Y-126858031D01*
X134132595Y-126858031D01*
X134150386Y-127667409D01*
X134425894Y-128332545D01*
X134734276Y-128480118D01*
X135996395Y-127218000D01*
X136355605Y-127218000D01*
X137617724Y-128480118D01*
X137926106Y-128332545D01*
X138219405Y-127577969D01*
X138201614Y-126768591D01*
X137926106Y-126103455D01*
X137617724Y-125955882D01*
X136355605Y-127218000D01*
X135996395Y-127218000D01*
X134734276Y-125955882D01*
X134425894Y-126103455D01*
X134132595Y-126858031D01*
X134011314Y-126858031D01*
X134011352Y-126814989D01*
X133848338Y-126420464D01*
X134540802Y-125728000D01*
X134936984Y-125728000D01*
X134913882Y-125776276D01*
X136176000Y-127038395D01*
X137438118Y-125776276D01*
X137415016Y-125728000D01*
X138988163Y-125728000D01*
X138651817Y-126063760D01*
X138341354Y-126811438D01*
X138340648Y-127621011D01*
X138649805Y-128369229D01*
X139221760Y-128942183D01*
X139969438Y-129252646D01*
X140779011Y-129253352D01*
X141527229Y-128944195D01*
X141812196Y-128659724D01*
X143313882Y-128659724D01*
X143461455Y-128968106D01*
X144216031Y-129261405D01*
X145025409Y-129243614D01*
X145690545Y-128968106D01*
X145838118Y-128659724D01*
X147513882Y-128659724D01*
X147661455Y-128968106D01*
X148416031Y-129261405D01*
X149225409Y-129243614D01*
X149890545Y-128968106D01*
X150038118Y-128659724D01*
X151713882Y-128659724D01*
X151861455Y-128968106D01*
X152616031Y-129261405D01*
X153425409Y-129243614D01*
X154090545Y-128968106D01*
X154238118Y-128659724D01*
X152976000Y-127397605D01*
X151713882Y-128659724D01*
X150038118Y-128659724D01*
X148776000Y-127397605D01*
X147513882Y-128659724D01*
X145838118Y-128659724D01*
X144576000Y-127397605D01*
X143313882Y-128659724D01*
X141812196Y-128659724D01*
X142100183Y-128372240D01*
X142410646Y-127624562D01*
X142411314Y-126858031D01*
X142532595Y-126858031D01*
X142550386Y-127667409D01*
X142825894Y-128332545D01*
X143134276Y-128480118D01*
X144396395Y-127218000D01*
X144755605Y-127218000D01*
X146017724Y-128480118D01*
X146326106Y-128332545D01*
X146619405Y-127577969D01*
X146603580Y-126858031D01*
X146732595Y-126858031D01*
X146750386Y-127667409D01*
X147025894Y-128332545D01*
X147334276Y-128480118D01*
X148596395Y-127218000D01*
X148955605Y-127218000D01*
X150217724Y-128480118D01*
X150526106Y-128332545D01*
X150819405Y-127577969D01*
X150803580Y-126858031D01*
X150932595Y-126858031D01*
X150950386Y-127667409D01*
X151225894Y-128332545D01*
X151534276Y-128480118D01*
X152796395Y-127218000D01*
X153155605Y-127218000D01*
X154417724Y-128480118D01*
X154726106Y-128332545D01*
X155019405Y-127577969D01*
X155001614Y-126768591D01*
X154726106Y-126103455D01*
X154417724Y-125955882D01*
X153155605Y-127218000D01*
X152796395Y-127218000D01*
X151534276Y-125955882D01*
X151225894Y-126103455D01*
X150932595Y-126858031D01*
X150803580Y-126858031D01*
X150801614Y-126768591D01*
X150526106Y-126103455D01*
X150217724Y-125955882D01*
X148955605Y-127218000D01*
X148596395Y-127218000D01*
X147334276Y-125955882D01*
X147025894Y-126103455D01*
X146732595Y-126858031D01*
X146603580Y-126858031D01*
X146601614Y-126768591D01*
X146326106Y-126103455D01*
X146017724Y-125955882D01*
X144755605Y-127218000D01*
X144396395Y-127218000D01*
X143134276Y-125955882D01*
X142825894Y-126103455D01*
X142532595Y-126858031D01*
X142411314Y-126858031D01*
X142411352Y-126814989D01*
X142102195Y-126066771D01*
X141764015Y-125728000D01*
X143336984Y-125728000D01*
X143313882Y-125776276D01*
X144576000Y-127038395D01*
X145838118Y-125776276D01*
X145815016Y-125728000D01*
X147536984Y-125728000D01*
X147513882Y-125776276D01*
X148776000Y-127038395D01*
X150038118Y-125776276D01*
X150015016Y-125728000D01*
X151736984Y-125728000D01*
X151713882Y-125776276D01*
X152976000Y-127038395D01*
X154238118Y-125776276D01*
X154215016Y-125728000D01*
X155788163Y-125728000D01*
X155451817Y-126063760D01*
X155141354Y-126811438D01*
X155140648Y-127621011D01*
X155449805Y-128369229D01*
X156021760Y-128942183D01*
X156769438Y-129252646D01*
X157579011Y-129253352D01*
X158327229Y-128944195D01*
X158900183Y-128372240D01*
X159210646Y-127624562D01*
X159211352Y-126814989D01*
X158902195Y-126066771D01*
X158564015Y-125728000D01*
X159988163Y-125728000D01*
X159651817Y-126063760D01*
X159341354Y-126811438D01*
X159340648Y-127621011D01*
X159649805Y-128369229D01*
X160221760Y-128942183D01*
X160969438Y-129252646D01*
X161779011Y-129253352D01*
X162527229Y-128944195D01*
X163100183Y-128372240D01*
X163410646Y-127624562D01*
X163411352Y-126814989D01*
X163102195Y-126066771D01*
X162764015Y-125728000D01*
X164188163Y-125728000D01*
X163851817Y-126063760D01*
X163541354Y-126811438D01*
X163540648Y-127621011D01*
X163849805Y-128369229D01*
X164421760Y-128942183D01*
X165169438Y-129252646D01*
X165979011Y-129253352D01*
X166727229Y-128944195D01*
X167300183Y-128372240D01*
X167610646Y-127624562D01*
X167610649Y-127621011D01*
X167740648Y-127621011D01*
X168049805Y-128369229D01*
X168621760Y-128942183D01*
X169369438Y-129252646D01*
X170179011Y-129253352D01*
X170927229Y-128944195D01*
X171212196Y-128659724D01*
X172713882Y-128659724D01*
X172861455Y-128968106D01*
X173616031Y-129261405D01*
X174425409Y-129243614D01*
X175090545Y-128968106D01*
X175238118Y-128659724D01*
X173976000Y-127397605D01*
X172713882Y-128659724D01*
X171212196Y-128659724D01*
X171500183Y-128372240D01*
X171810646Y-127624562D01*
X171811314Y-126858031D01*
X171932595Y-126858031D01*
X171950386Y-127667409D01*
X172225894Y-128332545D01*
X172534276Y-128480118D01*
X173796395Y-127218000D01*
X174155605Y-127218000D01*
X175417724Y-128480118D01*
X175726106Y-128332545D01*
X176019405Y-127577969D01*
X176001614Y-126768591D01*
X175754755Y-126172619D01*
X179374613Y-126172619D01*
X179714155Y-126994372D01*
X180342321Y-127623636D01*
X181163481Y-127964611D01*
X182052619Y-127965387D01*
X182874372Y-127625845D01*
X183503636Y-126997679D01*
X183844611Y-126176519D01*
X183845387Y-125287381D01*
X183505845Y-124465628D01*
X182877679Y-123836364D01*
X182056519Y-123495389D01*
X181167381Y-123494613D01*
X180345628Y-123834155D01*
X179716364Y-124462321D01*
X179375389Y-125283481D01*
X179374613Y-126172619D01*
X175754755Y-126172619D01*
X175726106Y-126103455D01*
X175417724Y-125955882D01*
X174155605Y-127218000D01*
X173796395Y-127218000D01*
X172534276Y-125955882D01*
X172225894Y-126103455D01*
X171932595Y-126858031D01*
X171811314Y-126858031D01*
X171811352Y-126814989D01*
X171502195Y-126066771D01*
X171212207Y-125776276D01*
X172713882Y-125776276D01*
X173976000Y-127038395D01*
X175238118Y-125776276D01*
X175090545Y-125467894D01*
X174335969Y-125174595D01*
X173526591Y-125192386D01*
X172861455Y-125467894D01*
X172713882Y-125776276D01*
X171212207Y-125776276D01*
X170930240Y-125493817D01*
X170182562Y-125183354D01*
X169372989Y-125182648D01*
X168624771Y-125491805D01*
X168051817Y-126063760D01*
X167741354Y-126811438D01*
X167740648Y-127621011D01*
X167610649Y-127621011D01*
X167611352Y-126814989D01*
X167302195Y-126066771D01*
X166730240Y-125493817D01*
X166684131Y-125474671D01*
X168169584Y-123989218D01*
X168621760Y-124442183D01*
X169369438Y-124752646D01*
X170179011Y-124753352D01*
X170927229Y-124444195D01*
X171500183Y-123872240D01*
X171810646Y-123124562D01*
X171810649Y-123121011D01*
X171940648Y-123121011D01*
X172249805Y-123869229D01*
X172821760Y-124442183D01*
X173569438Y-124752646D01*
X174379011Y-124753352D01*
X175127229Y-124444195D01*
X175700183Y-123872240D01*
X176010646Y-123124562D01*
X176011352Y-122314989D01*
X175702195Y-121566771D01*
X175130240Y-120993817D01*
X174382562Y-120683354D01*
X173572989Y-120682648D01*
X172824771Y-120991805D01*
X172251817Y-121563760D01*
X171941354Y-122311438D01*
X171940648Y-123121011D01*
X171810649Y-123121011D01*
X171811352Y-122314989D01*
X171502195Y-121566771D01*
X170930240Y-120993817D01*
X170182562Y-120683354D01*
X169372989Y-120682648D01*
X168624771Y-120991805D01*
X168400000Y-121216184D01*
X168400000Y-118678802D01*
X168939401Y-118139401D01*
X169104148Y-117892839D01*
X169162000Y-117602000D01*
X169162000Y-116332000D01*
X169153452Y-116289026D01*
X169507207Y-116289335D01*
X170218658Y-115995370D01*
X170763457Y-115451521D01*
X171058663Y-114740584D01*
X171059335Y-113970793D01*
X170931222Y-113660735D01*
X171287880Y-113798066D01*
X172057427Y-113778710D01*
X172311372Y-113673523D01*
X172189337Y-113967416D01*
X172188665Y-114737207D01*
X172482630Y-115448658D01*
X173026479Y-115993457D01*
X173737416Y-116288663D01*
X174507207Y-116289335D01*
X175218658Y-115995370D01*
X175763457Y-115451521D01*
X176058663Y-114740584D01*
X176059335Y-113970793D01*
X175765370Y-113259342D01*
X175221521Y-112714543D01*
X174510584Y-112419337D01*
X173740793Y-112418665D01*
X173430735Y-112546778D01*
X173568066Y-112190120D01*
X173548710Y-111420573D01*
X173291455Y-110799504D01*
X172993459Y-110664146D01*
X171803605Y-111854000D01*
X171817748Y-111868143D01*
X171638143Y-112047748D01*
X171624000Y-112033605D01*
X171609858Y-112047748D01*
X171430253Y-111868143D01*
X171444395Y-111854000D01*
X170254541Y-110664146D01*
X169956545Y-110799504D01*
X169679934Y-111517880D01*
X169699290Y-112287427D01*
X169804477Y-112541372D01*
X169510584Y-112419337D01*
X168740793Y-112418665D01*
X168431683Y-112546386D01*
X168558663Y-112240584D01*
X168559335Y-111470793D01*
X168265370Y-110759342D01*
X167991049Y-110484541D01*
X170434146Y-110484541D01*
X171624000Y-111674395D01*
X172813854Y-110484541D01*
X172678496Y-110186545D01*
X171960120Y-109909934D01*
X171190573Y-109929290D01*
X170569504Y-110186545D01*
X170434146Y-110484541D01*
X167991049Y-110484541D01*
X167721521Y-110214543D01*
X167010584Y-109919337D01*
X166240793Y-109918665D01*
X165529342Y-110212630D01*
X164984543Y-110756479D01*
X164689337Y-111467416D01*
X164688665Y-112237207D01*
X164816386Y-112546317D01*
X164510584Y-112419337D01*
X163740793Y-112418665D01*
X163430735Y-112546778D01*
X163568066Y-112190120D01*
X163548710Y-111420573D01*
X163291455Y-110799504D01*
X162993459Y-110664146D01*
X161803605Y-111854000D01*
X161817748Y-111868143D01*
X161638143Y-112047748D01*
X161624000Y-112033605D01*
X161609858Y-112047748D01*
X161430253Y-111868143D01*
X161444395Y-111854000D01*
X160254541Y-110664146D01*
X159956545Y-110799504D01*
X159679934Y-111517880D01*
X159699290Y-112287427D01*
X159804477Y-112541372D01*
X159510584Y-112419337D01*
X158740793Y-112418665D01*
X158029342Y-112712630D01*
X157484543Y-113256479D01*
X157189337Y-113967416D01*
X157188665Y-114737207D01*
X157482630Y-115448658D01*
X158026479Y-115993457D01*
X158737416Y-116288663D01*
X159507207Y-116289335D01*
X160218658Y-115995370D01*
X160763457Y-115451521D01*
X161058663Y-114740584D01*
X161059335Y-113970793D01*
X160931222Y-113660735D01*
X161287880Y-113798066D01*
X162057427Y-113778710D01*
X162311372Y-113673523D01*
X162189337Y-113967416D01*
X162188665Y-114737207D01*
X162482630Y-115448658D01*
X163026479Y-115993457D01*
X163293500Y-116104333D01*
X163293500Y-121266000D01*
X163356718Y-121583819D01*
X163436245Y-121702839D01*
X163536748Y-121853252D01*
X163674436Y-121990940D01*
X163541354Y-122311438D01*
X163540648Y-123121011D01*
X163849805Y-123869229D01*
X164187985Y-124208000D01*
X162763837Y-124208000D01*
X163100183Y-123872240D01*
X163410646Y-123124562D01*
X163411352Y-122314989D01*
X163102195Y-121566771D01*
X162530240Y-120993817D01*
X161782562Y-120683354D01*
X160972989Y-120682648D01*
X160224771Y-120991805D01*
X159651817Y-121563760D01*
X159341354Y-122311438D01*
X159340648Y-123121011D01*
X159649805Y-123869229D01*
X159987985Y-124208000D01*
X158563837Y-124208000D01*
X158900183Y-123872240D01*
X159210646Y-123124562D01*
X159211352Y-122314989D01*
X158902195Y-121566771D01*
X158330240Y-120993817D01*
X157582562Y-120683354D01*
X156772989Y-120682648D01*
X156024771Y-120991805D01*
X155451817Y-121563760D01*
X155141354Y-122311438D01*
X155140648Y-123121011D01*
X155449805Y-123869229D01*
X155787985Y-124208000D01*
X154215016Y-124208000D01*
X154238118Y-124159724D01*
X152976000Y-122897605D01*
X151713882Y-124159724D01*
X151736984Y-124208000D01*
X150163837Y-124208000D01*
X150500183Y-123872240D01*
X150810646Y-123124562D01*
X150811314Y-122358031D01*
X150932595Y-122358031D01*
X150950386Y-123167409D01*
X151225894Y-123832545D01*
X151534276Y-123980118D01*
X152796395Y-122718000D01*
X153155605Y-122718000D01*
X154417724Y-123980118D01*
X154726106Y-123832545D01*
X155019405Y-123077969D01*
X155001614Y-122268591D01*
X154726106Y-121603455D01*
X154417724Y-121455882D01*
X153155605Y-122718000D01*
X152796395Y-122718000D01*
X151534276Y-121455882D01*
X151225894Y-121603455D01*
X150932595Y-122358031D01*
X150811314Y-122358031D01*
X150811352Y-122314989D01*
X150502195Y-121566771D01*
X150212207Y-121276276D01*
X151713882Y-121276276D01*
X152976000Y-122538395D01*
X154238118Y-121276276D01*
X154090545Y-120967894D01*
X153335969Y-120674595D01*
X152526591Y-120692386D01*
X151861455Y-120967894D01*
X151713882Y-121276276D01*
X150212207Y-121276276D01*
X149930240Y-120993817D01*
X149182562Y-120683354D01*
X148372989Y-120682648D01*
X147624771Y-120991805D01*
X147051817Y-121563760D01*
X146741354Y-122311438D01*
X146740648Y-123121011D01*
X147049805Y-123869229D01*
X147387985Y-124208000D01*
X145815016Y-124208000D01*
X145838118Y-124159724D01*
X144576000Y-122897605D01*
X143313882Y-124159724D01*
X143336984Y-124208000D01*
X141763837Y-124208000D01*
X142100183Y-123872240D01*
X142410646Y-123124562D01*
X142411314Y-122358031D01*
X142532595Y-122358031D01*
X142550386Y-123167409D01*
X142825894Y-123832545D01*
X143134276Y-123980118D01*
X144396395Y-122718000D01*
X144755605Y-122718000D01*
X146017724Y-123980118D01*
X146326106Y-123832545D01*
X146619405Y-123077969D01*
X146601614Y-122268591D01*
X146326106Y-121603455D01*
X146017724Y-121455882D01*
X144755605Y-122718000D01*
X144396395Y-122718000D01*
X143134276Y-121455882D01*
X142825894Y-121603455D01*
X142532595Y-122358031D01*
X142411314Y-122358031D01*
X142411352Y-122314989D01*
X142102195Y-121566771D01*
X141812207Y-121276276D01*
X143313882Y-121276276D01*
X144576000Y-122538395D01*
X145838118Y-121276276D01*
X145690545Y-120967894D01*
X144935969Y-120674595D01*
X144126591Y-120692386D01*
X143461455Y-120967894D01*
X143313882Y-121276276D01*
X141812207Y-121276276D01*
X141530240Y-120993817D01*
X140782562Y-120683354D01*
X139972989Y-120682648D01*
X139224771Y-120991805D01*
X138651817Y-121563760D01*
X138341354Y-122311438D01*
X138340648Y-123121011D01*
X138649805Y-123869229D01*
X138987985Y-124208000D01*
X137415016Y-124208000D01*
X137438118Y-124159724D01*
X136176000Y-122897605D01*
X134913882Y-124159724D01*
X134936984Y-124208000D01*
X134226000Y-124208000D01*
X133935161Y-124265852D01*
X133688599Y-124430599D01*
X132773509Y-125345689D01*
X132382562Y-125183354D01*
X131572989Y-125182648D01*
X130824771Y-125491805D01*
X130251817Y-126063760D01*
X129941354Y-126811438D01*
X129940648Y-127621011D01*
X129810649Y-127621011D01*
X129811352Y-126814989D01*
X129502195Y-126066771D01*
X128930240Y-125493817D01*
X128182562Y-125183354D01*
X127372989Y-125182648D01*
X126624771Y-125491805D01*
X126051817Y-126063760D01*
X125741354Y-126811438D01*
X125740648Y-127621011D01*
X125029389Y-127621011D01*
X125210628Y-127184541D01*
X125211370Y-126335185D01*
X124887020Y-125550200D01*
X124286959Y-124949091D01*
X123502541Y-124623372D01*
X122653185Y-124622630D01*
X121868200Y-124946980D01*
X121267091Y-125547041D01*
X120941372Y-126331459D01*
X120940630Y-127180815D01*
X116710000Y-127180815D01*
X116710000Y-122362619D01*
X118414613Y-122362619D01*
X118754155Y-123184372D01*
X119382321Y-123813636D01*
X120203481Y-124154611D01*
X121092619Y-124155387D01*
X121914372Y-123815845D01*
X122543636Y-123187679D01*
X122884611Y-122366519D01*
X122885387Y-121477381D01*
X122819533Y-121318000D01*
X125728560Y-121318000D01*
X125728560Y-124118000D01*
X125772838Y-124353317D01*
X125911910Y-124569441D01*
X126124110Y-124714431D01*
X126376000Y-124765440D01*
X129176000Y-124765440D01*
X129411317Y-124721162D01*
X129627441Y-124582090D01*
X129772431Y-124369890D01*
X129823440Y-124118000D01*
X129823440Y-123121011D01*
X129940648Y-123121011D01*
X130249805Y-123869229D01*
X130821760Y-124442183D01*
X131569438Y-124752646D01*
X132379011Y-124753352D01*
X133127229Y-124444195D01*
X133700183Y-123872240D01*
X134010646Y-123124562D01*
X134011314Y-122358031D01*
X134132595Y-122358031D01*
X134150386Y-123167409D01*
X134425894Y-123832545D01*
X134734276Y-123980118D01*
X135996395Y-122718000D01*
X136355605Y-122718000D01*
X137617724Y-123980118D01*
X137926106Y-123832545D01*
X138219405Y-123077969D01*
X138201614Y-122268591D01*
X137926106Y-121603455D01*
X137617724Y-121455882D01*
X136355605Y-122718000D01*
X135996395Y-122718000D01*
X134734276Y-121455882D01*
X134425894Y-121603455D01*
X134132595Y-122358031D01*
X134011314Y-122358031D01*
X134011352Y-122314989D01*
X133702195Y-121566771D01*
X133412207Y-121276276D01*
X134913882Y-121276276D01*
X136176000Y-122538395D01*
X137438118Y-121276276D01*
X137290545Y-120967894D01*
X136535969Y-120674595D01*
X135726591Y-120692386D01*
X135061455Y-120967894D01*
X134913882Y-121276276D01*
X133412207Y-121276276D01*
X133130240Y-120993817D01*
X132382562Y-120683354D01*
X131572989Y-120682648D01*
X130824771Y-120991805D01*
X130251817Y-121563760D01*
X129941354Y-122311438D01*
X129940648Y-123121011D01*
X129823440Y-123121011D01*
X129823440Y-121318000D01*
X129779162Y-121082683D01*
X129640090Y-120866559D01*
X129427890Y-120721569D01*
X129176000Y-120670560D01*
X126376000Y-120670560D01*
X126140683Y-120714838D01*
X125924559Y-120853910D01*
X125779569Y-121066110D01*
X125728560Y-121318000D01*
X122819533Y-121318000D01*
X122545845Y-120655628D01*
X121917679Y-120026364D01*
X121096519Y-119685389D01*
X120207381Y-119684613D01*
X119385628Y-120024155D01*
X118756364Y-120652321D01*
X118415389Y-121473481D01*
X118414613Y-122362619D01*
X116710000Y-122362619D01*
X116710000Y-114076187D01*
X124818752Y-114076187D01*
X125036757Y-114603800D01*
X125440077Y-115007824D01*
X125967309Y-115226750D01*
X126538187Y-115227248D01*
X127065800Y-115009243D01*
X127469824Y-114605923D01*
X127688750Y-114078691D01*
X127689248Y-113507813D01*
X127471243Y-112980200D01*
X127067923Y-112576176D01*
X126953232Y-112528552D01*
X127008005Y-112505864D01*
X127082139Y-112259745D01*
X126254000Y-111431605D01*
X125425861Y-112259745D01*
X125499995Y-112505864D01*
X125558254Y-112526805D01*
X125442200Y-112574757D01*
X125038176Y-112978077D01*
X124819250Y-113505309D01*
X124818752Y-114076187D01*
X116710000Y-114076187D01*
X116710000Y-111035223D01*
X124807035Y-111035223D01*
X124834222Y-111605454D01*
X125000136Y-112006005D01*
X125246255Y-112080139D01*
X126074395Y-111252000D01*
X126433605Y-111252000D01*
X127261745Y-112080139D01*
X127507864Y-112006005D01*
X127700965Y-111468777D01*
X127673778Y-110898546D01*
X127507864Y-110497995D01*
X127463198Y-110484541D01*
X160434146Y-110484541D01*
X161624000Y-111674395D01*
X162813854Y-110484541D01*
X162678496Y-110186545D01*
X161960120Y-109909934D01*
X161190573Y-109929290D01*
X160569504Y-110186545D01*
X160434146Y-110484541D01*
X127463198Y-110484541D01*
X127261745Y-110423861D01*
X126433605Y-111252000D01*
X126074395Y-111252000D01*
X125246255Y-110423861D01*
X125000136Y-110497995D01*
X124807035Y-111035223D01*
X116710000Y-111035223D01*
X116710000Y-108996187D01*
X124818752Y-108996187D01*
X125036757Y-109523800D01*
X125440077Y-109927824D01*
X125554768Y-109975448D01*
X125499995Y-109998136D01*
X125425861Y-110244255D01*
X126254000Y-111072395D01*
X127082139Y-110244255D01*
X127008005Y-109998136D01*
X126949746Y-109977195D01*
X127065800Y-109929243D01*
X127469824Y-109525923D01*
X127688750Y-108998691D01*
X127689248Y-108427813D01*
X127574944Y-108151175D01*
X160506430Y-108151175D01*
X160629565Y-108438788D01*
X161311734Y-108698707D01*
X162041443Y-108677786D01*
X162618435Y-108438788D01*
X162741570Y-108151175D01*
X170506430Y-108151175D01*
X170629565Y-108438788D01*
X171311734Y-108698707D01*
X172041443Y-108677786D01*
X172618435Y-108438788D01*
X172741570Y-108151175D01*
X171624000Y-107033605D01*
X170506430Y-108151175D01*
X162741570Y-108151175D01*
X161624000Y-107033605D01*
X160506430Y-108151175D01*
X127574944Y-108151175D01*
X127471243Y-107900200D01*
X127067923Y-107496176D01*
X126540691Y-107277250D01*
X125969813Y-107276752D01*
X125442200Y-107494757D01*
X125038176Y-107898077D01*
X124819250Y-108425309D01*
X124818752Y-108996187D01*
X116710000Y-108996187D01*
X116710000Y-106541734D01*
X159779293Y-106541734D01*
X159800214Y-107271443D01*
X160039212Y-107848435D01*
X160326825Y-107971570D01*
X161444395Y-106854000D01*
X161803605Y-106854000D01*
X162921175Y-107971570D01*
X163208788Y-107848435D01*
X163468707Y-107166266D01*
X163450802Y-106541734D01*
X169779293Y-106541734D01*
X169800214Y-107271443D01*
X170039212Y-107848435D01*
X170326825Y-107971570D01*
X171444395Y-106854000D01*
X171803605Y-106854000D01*
X172921175Y-107971570D01*
X173208788Y-107848435D01*
X173468707Y-107166266D01*
X173447786Y-106436557D01*
X173208788Y-105859565D01*
X172921175Y-105736430D01*
X171803605Y-106854000D01*
X171444395Y-106854000D01*
X170326825Y-105736430D01*
X170039212Y-105859565D01*
X169779293Y-106541734D01*
X163450802Y-106541734D01*
X163447786Y-106436557D01*
X163208788Y-105859565D01*
X162921175Y-105736430D01*
X161803605Y-106854000D01*
X161444395Y-106854000D01*
X160326825Y-105736430D01*
X160039212Y-105859565D01*
X159779293Y-106541734D01*
X116710000Y-106541734D01*
X116710000Y-105556825D01*
X160506430Y-105556825D01*
X161624000Y-106674395D01*
X162741570Y-105556825D01*
X170506430Y-105556825D01*
X171624000Y-106674395D01*
X172741570Y-105556825D01*
X172618435Y-105269212D01*
X171936266Y-105009293D01*
X171206557Y-105030214D01*
X170629565Y-105269212D01*
X170506430Y-105556825D01*
X162741570Y-105556825D01*
X162618435Y-105269212D01*
X161936266Y-105009293D01*
X161206557Y-105030214D01*
X160629565Y-105269212D01*
X160506430Y-105556825D01*
X116710000Y-105556825D01*
X116710000Y-103312619D01*
X118414613Y-103312619D01*
X118754155Y-104134372D01*
X119382321Y-104763636D01*
X120203481Y-105104611D01*
X121092619Y-105105387D01*
X121914372Y-104765845D01*
X122040692Y-104639745D01*
X125425861Y-104639745D01*
X125499995Y-104885864D01*
X126037223Y-105078965D01*
X126607454Y-105051778D01*
X127008005Y-104885864D01*
X127082139Y-104639745D01*
X126254000Y-103811605D01*
X125425861Y-104639745D01*
X122040692Y-104639745D01*
X122543636Y-104137679D01*
X122843625Y-103415223D01*
X124807035Y-103415223D01*
X124834222Y-103985454D01*
X125000136Y-104386005D01*
X125246255Y-104460139D01*
X126074395Y-103632000D01*
X126433605Y-103632000D01*
X127261745Y-104460139D01*
X127507864Y-104386005D01*
X127700965Y-103848777D01*
X127673778Y-103278546D01*
X127650961Y-103223459D01*
X162934146Y-103223459D01*
X163069504Y-103521455D01*
X163787880Y-103798066D01*
X164557427Y-103778710D01*
X165178496Y-103521455D01*
X165313854Y-103223459D01*
X167934146Y-103223459D01*
X168069504Y-103521455D01*
X168787880Y-103798066D01*
X169557427Y-103778710D01*
X170178496Y-103521455D01*
X170273355Y-103312619D01*
X179374613Y-103312619D01*
X179714155Y-104134372D01*
X180342321Y-104763636D01*
X181163481Y-105104611D01*
X182052619Y-105105387D01*
X182874372Y-104765845D01*
X183503636Y-104137679D01*
X183844611Y-103316519D01*
X183845387Y-102427381D01*
X183505845Y-101605628D01*
X182877679Y-100976364D01*
X182056519Y-100635389D01*
X181167381Y-100634613D01*
X180345628Y-100974155D01*
X179716364Y-101602321D01*
X179375389Y-102423481D01*
X179374613Y-103312619D01*
X170273355Y-103312619D01*
X170313854Y-103223459D01*
X169124000Y-102033605D01*
X167934146Y-103223459D01*
X165313854Y-103223459D01*
X164124000Y-102033605D01*
X162934146Y-103223459D01*
X127650961Y-103223459D01*
X127507864Y-102877995D01*
X127261745Y-102803861D01*
X126433605Y-103632000D01*
X126074395Y-103632000D01*
X125246255Y-102803861D01*
X125000136Y-102877995D01*
X124807035Y-103415223D01*
X122843625Y-103415223D01*
X122884611Y-103316519D01*
X122885215Y-102624255D01*
X125425861Y-102624255D01*
X126254000Y-103452395D01*
X127082139Y-102624255D01*
X127008005Y-102378136D01*
X126470777Y-102185035D01*
X125900546Y-102212222D01*
X125499995Y-102378136D01*
X125425861Y-102624255D01*
X122885215Y-102624255D01*
X122885387Y-102427381D01*
X122545845Y-101605628D01*
X122458251Y-101517880D01*
X162179934Y-101517880D01*
X162199290Y-102287427D01*
X162456545Y-102908496D01*
X162754541Y-103043854D01*
X163944395Y-101854000D01*
X164303605Y-101854000D01*
X165493459Y-103043854D01*
X165791455Y-102908496D01*
X166068066Y-102190120D01*
X166051158Y-101517880D01*
X167179934Y-101517880D01*
X167199290Y-102287427D01*
X167456545Y-102908496D01*
X167754541Y-103043854D01*
X168944395Y-101854000D01*
X169303605Y-101854000D01*
X170493459Y-103043854D01*
X170791455Y-102908496D01*
X171068066Y-102190120D01*
X171048710Y-101420573D01*
X170791455Y-100799504D01*
X170493459Y-100664146D01*
X169303605Y-101854000D01*
X168944395Y-101854000D01*
X167754541Y-100664146D01*
X167456545Y-100799504D01*
X167179934Y-101517880D01*
X166051158Y-101517880D01*
X166048710Y-101420573D01*
X165791455Y-100799504D01*
X165493459Y-100664146D01*
X164303605Y-101854000D01*
X163944395Y-101854000D01*
X162754541Y-100664146D01*
X162456545Y-100799504D01*
X162179934Y-101517880D01*
X122458251Y-101517880D01*
X121917679Y-100976364D01*
X121096519Y-100635389D01*
X120207381Y-100634613D01*
X119385628Y-100974155D01*
X118756364Y-101602321D01*
X118415389Y-102423481D01*
X118414613Y-103312619D01*
X116710000Y-103312619D01*
X116710000Y-100484541D01*
X162934146Y-100484541D01*
X164124000Y-101674395D01*
X165313854Y-100484541D01*
X167934146Y-100484541D01*
X169124000Y-101674395D01*
X170313854Y-100484541D01*
X170178496Y-100186545D01*
X169460120Y-99909934D01*
X168690573Y-99929290D01*
X168069504Y-100186545D01*
X167934146Y-100484541D01*
X165313854Y-100484541D01*
X165178496Y-100186545D01*
X164460120Y-99909934D01*
X163690573Y-99929290D01*
X163069504Y-100186545D01*
X162934146Y-100484541D01*
X116710000Y-100484541D01*
X116710000Y-99516000D01*
X185042000Y-99516000D01*
X185042000Y-129592000D01*
M02*
