M48
;DRILL file {KiCad 4.0.7} date 07/10/18 00:50:13
;FORMAT={-:-/ absolute / inch / decimal}
FMAT,2
INCH,TZ
T1C0.031
T2C0.051
T3C0.055
T4C0.094
T5C0.118
T6C0.126
%
G90
G05
M72
T1
X4.9706Y-4.08
X4.9706Y-4.28
X4.9706Y-4.38
X4.9706Y-4.48
T2
X6.2647Y-4.5021
X6.3631Y-4.4037
X6.4616Y-4.01
X6.4616Y-4.5021
X6.56Y-4.4037
X6.56Y-4.6006
X6.6584Y-4.01
X6.6584Y-4.5021
X6.7569Y-4.4037
X6.8553Y-4.5021
T3
X5.0306Y-4.8314
X5.0306Y-5.0086
X5.1959Y-4.8314
X5.1959Y-5.0086
X5.3613Y-4.8314
X5.3613Y-5.0086
X5.5266Y-4.8314
X5.5266Y-5.0086
X5.692Y-4.8314
X5.692Y-5.0086
X5.8573Y-4.8314
X5.8573Y-5.0086
X6.0227Y-4.8314
X6.0227Y-5.0086
X6.188Y-4.8314
X6.188Y-5.0086
X6.3534Y-4.8314
X6.3534Y-5.0086
X6.5187Y-4.8314
X6.5187Y-5.0086
X6.6841Y-4.8314
X6.6841Y-5.0086
X6.8494Y-4.8314
X6.8494Y-5.0086
T4
X6.3631Y-4.2069
X6.7569Y-4.2069
T5
X4.8455Y-4.9905
T6
X4.75Y-4.05
X4.75Y-4.8
X7.15Y-4.05
X7.15Y-4.95
T0
M30
