G04 #@! TF.FileFunction,Legend,Top*
%FSLAX46Y46*%
G04 Gerber Fmt 4.6, Leading zero omitted, Abs format (unit mm)*
G04 Created by KiCad (PCBNEW 4.0.7) date 07/10/18 00:50:01*
%MOMM*%
%LPD*%
G01*
G04 APERTURE LIST*
%ADD10C,0.100000*%
%ADD11C,0.300000*%
%ADD12C,0.150000*%
G04 APERTURE END LIST*
D10*
D11*
X139934572Y-104878000D02*
X140648858Y-104878000D01*
X139791715Y-105306571D02*
X140291715Y-103806571D01*
X140791715Y-105306571D01*
X141077429Y-103806571D02*
X141934572Y-103806571D01*
X141506001Y-105306571D02*
X141506001Y-103806571D01*
X142291715Y-103806571D02*
X143291715Y-105306571D01*
X143291715Y-103806571D02*
X142291715Y-105306571D01*
X144791714Y-104306571D02*
X145363143Y-104306571D01*
X145006000Y-103806571D02*
X145006000Y-105092286D01*
X145077428Y-105235143D01*
X145220286Y-105306571D01*
X145363143Y-105306571D01*
X146077429Y-105306571D02*
X145934571Y-105235143D01*
X145863143Y-105163714D01*
X145791714Y-105020857D01*
X145791714Y-104592286D01*
X145863143Y-104449429D01*
X145934571Y-104378000D01*
X146077429Y-104306571D01*
X146291714Y-104306571D01*
X146434571Y-104378000D01*
X146506000Y-104449429D01*
X146577429Y-104592286D01*
X146577429Y-105020857D01*
X146506000Y-105163714D01*
X146434571Y-105235143D01*
X146291714Y-105306571D01*
X146077429Y-105306571D01*
X135684571Y-107070857D02*
X136184571Y-107070857D01*
X136398857Y-107856571D02*
X135684571Y-107856571D01*
X135684571Y-106356571D01*
X136398857Y-106356571D01*
X136898857Y-107856571D02*
X137684571Y-106856571D01*
X136898857Y-106856571D02*
X137684571Y-107856571D01*
X138041714Y-106856571D02*
X138613143Y-106856571D01*
X138256000Y-106356571D02*
X138256000Y-107642286D01*
X138327428Y-107785143D01*
X138470286Y-107856571D01*
X138613143Y-107856571D01*
X139113143Y-107856571D02*
X139113143Y-106856571D01*
X139113143Y-107142286D02*
X139184571Y-106999429D01*
X139256000Y-106928000D01*
X139398857Y-106856571D01*
X139541714Y-106856571D01*
X140256000Y-107856571D02*
X140113142Y-107785143D01*
X140041714Y-107713714D01*
X139970285Y-107570857D01*
X139970285Y-107142286D01*
X140041714Y-106999429D01*
X140113142Y-106928000D01*
X140256000Y-106856571D01*
X140470285Y-106856571D01*
X140613142Y-106928000D01*
X140684571Y-106999429D01*
X140756000Y-107142286D01*
X140756000Y-107570857D01*
X140684571Y-107713714D01*
X140613142Y-107785143D01*
X140470285Y-107856571D01*
X140256000Y-107856571D01*
X141398857Y-106856571D02*
X141398857Y-107856571D01*
X141398857Y-106999429D02*
X141470285Y-106928000D01*
X141613143Y-106856571D01*
X141827428Y-106856571D01*
X141970285Y-106928000D01*
X142041714Y-107070857D01*
X142041714Y-107856571D01*
X143898857Y-107070857D02*
X144398857Y-107070857D01*
X144613143Y-107856571D02*
X143898857Y-107856571D01*
X143898857Y-106356571D01*
X144613143Y-106356571D01*
X145256000Y-107856571D02*
X145256000Y-106856571D01*
X145256000Y-106999429D02*
X145327428Y-106928000D01*
X145470286Y-106856571D01*
X145684571Y-106856571D01*
X145827428Y-106928000D01*
X145898857Y-107070857D01*
X145898857Y-107856571D01*
X145898857Y-107070857D02*
X145970286Y-106928000D01*
X146113143Y-106856571D01*
X146327428Y-106856571D01*
X146470286Y-106928000D01*
X146541714Y-107070857D01*
X146541714Y-107856571D01*
X147470286Y-107856571D02*
X147327428Y-107785143D01*
X147256000Y-107713714D01*
X147184571Y-107570857D01*
X147184571Y-107142286D01*
X147256000Y-106999429D01*
X147327428Y-106928000D01*
X147470286Y-106856571D01*
X147684571Y-106856571D01*
X147827428Y-106928000D01*
X147898857Y-106999429D01*
X147970286Y-107142286D01*
X147970286Y-107570857D01*
X147898857Y-107713714D01*
X147827428Y-107785143D01*
X147684571Y-107856571D01*
X147470286Y-107856571D01*
X148398857Y-106856571D02*
X148970286Y-106856571D01*
X148613143Y-106356571D02*
X148613143Y-107642286D01*
X148684571Y-107785143D01*
X148827429Y-107856571D01*
X148970286Y-107856571D01*
X149470286Y-107856571D02*
X149470286Y-106856571D01*
X149470286Y-106356571D02*
X149398857Y-106428000D01*
X149470286Y-106499429D01*
X149541714Y-106428000D01*
X149470286Y-106356571D01*
X149470286Y-106499429D01*
X150827429Y-107856571D02*
X150827429Y-107070857D01*
X150756000Y-106928000D01*
X150613143Y-106856571D01*
X150327429Y-106856571D01*
X150184572Y-106928000D01*
X150827429Y-107785143D02*
X150684572Y-107856571D01*
X150327429Y-107856571D01*
X150184572Y-107785143D01*
X150113143Y-107642286D01*
X150113143Y-107499429D01*
X150184572Y-107356571D01*
X150327429Y-107285143D01*
X150684572Y-107285143D01*
X150827429Y-107213714D01*
X136577429Y-110406571D02*
X136577429Y-108906571D01*
X137148857Y-108906571D01*
X137291715Y-108978000D01*
X137363143Y-109049429D01*
X137434572Y-109192286D01*
X137434572Y-109406571D01*
X137363143Y-109549429D01*
X137291715Y-109620857D01*
X137148857Y-109692286D01*
X136577429Y-109692286D01*
X138006000Y-110335143D02*
X138220286Y-110406571D01*
X138577429Y-110406571D01*
X138720286Y-110335143D01*
X138791715Y-110263714D01*
X138863143Y-110120857D01*
X138863143Y-109978000D01*
X138791715Y-109835143D01*
X138720286Y-109763714D01*
X138577429Y-109692286D01*
X138291715Y-109620857D01*
X138148857Y-109549429D01*
X138077429Y-109478000D01*
X138006000Y-109335143D01*
X138006000Y-109192286D01*
X138077429Y-109049429D01*
X138148857Y-108978000D01*
X138291715Y-108906571D01*
X138648857Y-108906571D01*
X138863143Y-108978000D01*
X139506000Y-108906571D02*
X139506000Y-110120857D01*
X139577428Y-110263714D01*
X139648857Y-110335143D01*
X139791714Y-110406571D01*
X140077428Y-110406571D01*
X140220286Y-110335143D01*
X140291714Y-110263714D01*
X140363143Y-110120857D01*
X140363143Y-108906571D01*
X142148857Y-109978000D02*
X142863143Y-109978000D01*
X142006000Y-110406571D02*
X142506000Y-108906571D01*
X143006000Y-110406571D01*
X144148857Y-110406571D02*
X144148857Y-108906571D01*
X144148857Y-110335143D02*
X144006000Y-110406571D01*
X143720286Y-110406571D01*
X143577428Y-110335143D01*
X143506000Y-110263714D01*
X143434571Y-110120857D01*
X143434571Y-109692286D01*
X143506000Y-109549429D01*
X143577428Y-109478000D01*
X143720286Y-109406571D01*
X144006000Y-109406571D01*
X144148857Y-109478000D01*
X145506000Y-110406571D02*
X145506000Y-109620857D01*
X145434571Y-109478000D01*
X145291714Y-109406571D01*
X145006000Y-109406571D01*
X144863143Y-109478000D01*
X145506000Y-110335143D02*
X145363143Y-110406571D01*
X145006000Y-110406571D01*
X144863143Y-110335143D01*
X144791714Y-110192286D01*
X144791714Y-110049429D01*
X144863143Y-109906571D01*
X145006000Y-109835143D01*
X145363143Y-109835143D01*
X145506000Y-109763714D01*
X146220286Y-109406571D02*
X146220286Y-110906571D01*
X146220286Y-109478000D02*
X146363143Y-109406571D01*
X146648857Y-109406571D01*
X146791714Y-109478000D01*
X146863143Y-109549429D01*
X146934572Y-109692286D01*
X146934572Y-110120857D01*
X146863143Y-110263714D01*
X146791714Y-110335143D01*
X146648857Y-110406571D01*
X146363143Y-110406571D01*
X146220286Y-110335143D01*
X147363143Y-109406571D02*
X147934572Y-109406571D01*
X147577429Y-108906571D02*
X147577429Y-110192286D01*
X147648857Y-110335143D01*
X147791715Y-110406571D01*
X147934572Y-110406571D01*
X149006000Y-110335143D02*
X148863143Y-110406571D01*
X148577429Y-110406571D01*
X148434572Y-110335143D01*
X148363143Y-110192286D01*
X148363143Y-109620857D01*
X148434572Y-109478000D01*
X148577429Y-109406571D01*
X148863143Y-109406571D01*
X149006000Y-109478000D01*
X149077429Y-109620857D01*
X149077429Y-109763714D01*
X148363143Y-109906571D01*
X149720286Y-110406571D02*
X149720286Y-109406571D01*
X149720286Y-109692286D02*
X149791714Y-109549429D01*
X149863143Y-109478000D01*
X150006000Y-109406571D01*
X150148857Y-109406571D01*
X134363143Y-114006571D02*
X135220286Y-114006571D01*
X134791715Y-115506571D02*
X134791715Y-114006571D01*
X135720286Y-115506571D02*
X135720286Y-114506571D01*
X135720286Y-114006571D02*
X135648857Y-114078000D01*
X135720286Y-114149429D01*
X135791714Y-114078000D01*
X135720286Y-114006571D01*
X135720286Y-114149429D01*
X136434572Y-114506571D02*
X136434572Y-115506571D01*
X136434572Y-114649429D02*
X136506000Y-114578000D01*
X136648858Y-114506571D01*
X136863143Y-114506571D01*
X137006000Y-114578000D01*
X137077429Y-114720857D01*
X137077429Y-115506571D01*
X137791715Y-115506571D02*
X137791715Y-114006571D01*
X137934572Y-114935143D02*
X138363143Y-115506571D01*
X138363143Y-114506571D02*
X137791715Y-115078000D01*
X139577429Y-115435143D02*
X139434572Y-115506571D01*
X139148858Y-115506571D01*
X139006001Y-115435143D01*
X138934572Y-115292286D01*
X138934572Y-114720857D01*
X139006001Y-114578000D01*
X139148858Y-114506571D01*
X139434572Y-114506571D01*
X139577429Y-114578000D01*
X139648858Y-114720857D01*
X139648858Y-114863714D01*
X138934572Y-115006571D01*
X140291715Y-115506571D02*
X140291715Y-114506571D01*
X140291715Y-114792286D02*
X140363143Y-114649429D01*
X140434572Y-114578000D01*
X140577429Y-114506571D01*
X140720286Y-114506571D01*
X141220286Y-114506571D02*
X141220286Y-116006571D01*
X141220286Y-114578000D02*
X141363143Y-114506571D01*
X141648857Y-114506571D01*
X141791714Y-114578000D01*
X141863143Y-114649429D01*
X141934572Y-114792286D01*
X141934572Y-115220857D01*
X141863143Y-115363714D01*
X141791714Y-115435143D01*
X141648857Y-115506571D01*
X141363143Y-115506571D01*
X141220286Y-115435143D01*
X142791715Y-115506571D02*
X142648857Y-115435143D01*
X142577429Y-115292286D01*
X142577429Y-114006571D01*
X144006000Y-114506571D02*
X144006000Y-115506571D01*
X143363143Y-114506571D02*
X143363143Y-115292286D01*
X143434571Y-115435143D01*
X143577429Y-115506571D01*
X143791714Y-115506571D01*
X143934571Y-115435143D01*
X144006000Y-115363714D01*
X144720286Y-114506571D02*
X144720286Y-115506571D01*
X144720286Y-114649429D02*
X144791714Y-114578000D01*
X144934572Y-114506571D01*
X145148857Y-114506571D01*
X145291714Y-114578000D01*
X145363143Y-114720857D01*
X145363143Y-115506571D01*
X146077429Y-115506571D02*
X146077429Y-114006571D01*
X146220286Y-114935143D02*
X146648857Y-115506571D01*
X146648857Y-114506571D02*
X146077429Y-115078000D01*
X147291715Y-115363714D02*
X147363143Y-115435143D01*
X147291715Y-115506571D01*
X147220286Y-115435143D01*
X147291715Y-115363714D01*
X147291715Y-115506571D01*
X148648858Y-115435143D02*
X148506001Y-115506571D01*
X148220287Y-115506571D01*
X148077429Y-115435143D01*
X148006001Y-115363714D01*
X147934572Y-115220857D01*
X147934572Y-114792286D01*
X148006001Y-114649429D01*
X148077429Y-114578000D01*
X148220287Y-114506571D01*
X148506001Y-114506571D01*
X148648858Y-114578000D01*
X149506001Y-115506571D02*
X149363143Y-115435143D01*
X149291715Y-115363714D01*
X149220286Y-115220857D01*
X149220286Y-114792286D01*
X149291715Y-114649429D01*
X149363143Y-114578000D01*
X149506001Y-114506571D01*
X149720286Y-114506571D01*
X149863143Y-114578000D01*
X149934572Y-114649429D01*
X150006001Y-114792286D01*
X150006001Y-115220857D01*
X149934572Y-115363714D01*
X149863143Y-115435143D01*
X149720286Y-115506571D01*
X149506001Y-115506571D01*
X150648858Y-115506571D02*
X150648858Y-114506571D01*
X150648858Y-114649429D02*
X150720286Y-114578000D01*
X150863144Y-114506571D01*
X151077429Y-114506571D01*
X151220286Y-114578000D01*
X151291715Y-114720857D01*
X151291715Y-115506571D01*
X151291715Y-114720857D02*
X151363144Y-114578000D01*
X151506001Y-114506571D01*
X151720286Y-114506571D01*
X151863144Y-114578000D01*
X151934572Y-114720857D01*
X151934572Y-115506571D01*
D12*
X156624000Y-99354000D02*
X176624000Y-99354000D01*
X176624000Y-99354000D02*
X176624000Y-117854000D01*
X176624000Y-117854000D02*
X156624000Y-117854000D01*
X156624000Y-117854000D02*
X156624000Y-99354000D01*
X125126000Y-120168000D02*
X176626000Y-120168000D01*
X176626000Y-120168000D02*
X176626000Y-129768000D01*
X176626000Y-129768000D02*
X125126000Y-129768000D01*
X125126000Y-129768000D02*
X125126000Y-120168000D01*
X124714000Y-108712000D02*
X124714000Y-99332000D01*
X124714000Y-99332000D02*
X129794000Y-99332000D01*
X129794000Y-99332000D02*
X129794000Y-108712000D01*
X166290667Y-103338381D02*
X166290667Y-104052667D01*
X166243047Y-104195524D01*
X166147809Y-104290762D01*
X166004952Y-104338381D01*
X165909714Y-104338381D01*
X167290667Y-104338381D02*
X166719238Y-104338381D01*
X167004952Y-104338381D02*
X167004952Y-103338381D01*
X166909714Y-103481238D01*
X166814476Y-103576476D01*
X166719238Y-103624095D01*
X150542667Y-118578381D02*
X150542667Y-119292667D01*
X150495047Y-119435524D01*
X150399809Y-119530762D01*
X150256952Y-119578381D01*
X150161714Y-119578381D01*
X150971238Y-118673619D02*
X151018857Y-118626000D01*
X151114095Y-118578381D01*
X151352191Y-118578381D01*
X151447429Y-118626000D01*
X151495048Y-118673619D01*
X151542667Y-118768857D01*
X151542667Y-118864095D01*
X151495048Y-119006952D01*
X150923619Y-119578381D01*
X151542667Y-119578381D01*
X126682667Y-106830762D02*
X126825524Y-106878381D01*
X127063620Y-106878381D01*
X127158858Y-106830762D01*
X127206477Y-106783143D01*
X127254096Y-106687905D01*
X127254096Y-106592667D01*
X127206477Y-106497429D01*
X127158858Y-106449810D01*
X127063620Y-106402190D01*
X126873143Y-106354571D01*
X126777905Y-106306952D01*
X126730286Y-106259333D01*
X126682667Y-106164095D01*
X126682667Y-106068857D01*
X126730286Y-105973619D01*
X126777905Y-105926000D01*
X126873143Y-105878381D01*
X127111239Y-105878381D01*
X127254096Y-105926000D01*
X127587429Y-105878381D02*
X127825524Y-106878381D01*
X128016001Y-106164095D01*
X128206477Y-106878381D01*
X128444572Y-105878381D01*
X129349334Y-106878381D02*
X128777905Y-106878381D01*
X129063619Y-106878381D02*
X129063619Y-105878381D01*
X128968381Y-106021238D01*
X128873143Y-106116476D01*
X128777905Y-106164095D01*
M02*
